# xmcd
#
# Track frame offsets:
#	150
#	11827
#	21877
#	40252
#	52177
#	64552
#	75502
#	95977
#	105427
#	118477
#	132877
#	145402
#
# Disc length: 2098 seconds
#
# Revision: 0
# Processed by: cddbd v1.5.2PL0 Copyright (c) Steve Scherf et al.
# Submitted via: EZCDAudioConverter 4.0.5.1
#
DISCID=aa08300c
DTITLE=Southbound Express - First Time Around
DYEAR=2000
DGENRE=Bluegrass
TTITLE0=Teardrops In My Eyes
TTITLE1=Kentucky Chimes
TTITLE2=All I Ever Loved Was You
TTITLE3=Big Spike Hammer
TTITLE4=Flat Lonesome
TTITLE5=Hallaleujah I'm Ready
TTITLE6=House  Of Gold
TTITLE7=Shenandoah Breakdown
TTITLE8=Bury Me Beneath The Willow
TTITLE9=You Won't Ever Forget Me
TTITLE10=Think Of What You've Done
TTITLE11=How Great Thou Art
EXTD=
EXTT0=
EXTT1=
EXTT2=
EXTT3=
EXTT4=
EXTT5=
EXTT6=
EXTT7=
EXTT8=
EXTT9=
EXTT10=
EXTT11=
PLAYORDER=
